<svg xmlns="http://www.w3.org/2000/svg" width="16" height="17" viewBox="0 0 16 17" fill="none"><path d="M8.24056 0.806396L14.9976 15.3132C15.0631 15.4561 15.0819 15.616 15.0514 15.7703C15.0209 15.9245 14.9426 16.0654 14.8275 16.1726C14.7125 16.2798 14.5667 16.3474 14.4107 16.3669C14.2547 16.3865 14.0965 16.3565 13.9586 16.281L7.86856 13.3806C7.77202 13.3083 7.65469 13.2693 7.53408 13.2693C7.41348 13.2693 7.29608 13.3083 7.19955 13.3806L1.18557 16.281C1.04764 16.3569 0.889274 16.3873 0.733057 16.3679C0.57684 16.3485 0.430741 16.2808 0.315515 16.1736C0.20029 16.0663 0.121845 15.9247 0.0913333 15.7703C0.0608215 15.6158 0.0798144 15.4562 0.145594 15.3132L6.90359 0.806396C6.95815 0.673959 7.05081 0.559917 7.16982 0.480225C7.28884 0.400532 7.42881 0.358154 7.57205 0.358154C7.71528 0.358154 7.85531 0.400532 7.97433 0.480225C8.09335 0.559917 8.18601 0.673959 8.24056 0.806396Z" fill="white"></path></svg>