<svg xmlns="http://www.w3.org/2000/svg" width="17" height="18" viewBox="0 0 17 18" fill="none"><path d="M3.89623 0.638062L6.43022 3.37146C6.53439 3.47384 6.61713 3.59614 6.6736 3.73084C6.73007 3.86553 6.75914 4.00959 6.75914 4.15564C6.75914 4.30169 6.73007 4.44673 6.6736 4.58142C6.61713 4.71611 6.53439 4.83842 6.43022 4.9408L5.43923 5.98865C5.90772 7.44999 6.67726 8.79704 7.69823 9.94275C8.79472 10.9692 10.0625 11.7951 11.4442 12.3842L12.4362 11.3373C12.5271 11.2281 12.6408 11.1407 12.7694 11.0804C12.898 11.0202 13.0382 10.9886 13.1802 10.9886C13.3222 10.9886 13.4625 11.0202 13.5911 11.0804C13.7197 11.1407 13.8334 11.2281 13.9242 11.3373L16.4582 14.0131C16.6178 14.1876 16.7063 14.4162 16.7063 14.6527C16.7063 14.8892 16.6178 15.1168 16.4582 15.2914L15.3582 16.5131C11.0062 21.0491 -2.76778 6.39579 1.52922 1.85779L2.68724 0.637085C2.76507 0.554926 2.85884 0.489379 2.96282 0.444702C3.06679 0.400026 3.17878 0.377226 3.29195 0.37732C3.40512 0.377413 3.51709 0.400831 3.62099 0.445679C3.72489 0.490527 3.81854 0.555773 3.89623 0.638062Z" fill="white"></path></svg>