<svg xmlns="http://www.w3.org/2000/svg" width="22" height="15" viewBox="0 0 22 15" fill="none"><path d="M19.8988 0.377319H1.69885C1.32755 0.377319 0.971413 0.524925 0.708862 0.787476C0.446311 1.05003 0.298828 1.40641 0.298828 1.77771V12.9769C0.298828 13.3482 0.446311 13.7046 0.708862 13.9672C0.971413 14.2297 1.32755 14.3773 1.69885 14.3773H19.8988C20.2701 14.3773 20.6262 14.2297 20.8888 13.9672C21.1513 13.7046 21.2988 13.3482 21.2988 12.9769V1.77771C21.2988 1.40641 21.1513 1.05003 20.8888 0.787476C20.6262 0.524925 20.2701 0.377319 19.8988 0.377319ZM18.5378 10.2777C18.6169 10.3275 18.6853 10.3925 18.7388 10.4691C18.7923 10.5458 18.8299 10.6326 18.8494 10.724C18.8689 10.8154 18.8699 10.9095 18.8523 11.0013C18.8347 11.0932 18.7989 11.1804 18.7469 11.2582C18.695 11.3359 18.6281 11.403 18.55 11.4545C18.472 11.5059 18.3844 11.5409 18.2925 11.558C18.2006 11.575 18.1062 11.5731 18.0149 11.5531C17.9236 11.5331 17.8372 11.4957 17.7609 11.4418L12.7869 8.12146L11.7358 8.82166C11.4603 9.00542 11.1365 9.10291 10.8053 9.10291C10.4741 9.10291 10.1504 9.00542 9.87488 8.82166L8.82385 8.12146L3.83679 11.4388C3.76023 11.4899 3.67436 11.5255 3.58411 11.5433C3.49385 11.5612 3.401 11.5614 3.31079 11.5433C3.22058 11.5253 3.13478 11.4891 3.05835 11.4379C2.98192 11.3867 2.91637 11.3211 2.86536 11.2445C2.81434 11.1679 2.77882 11.0828 2.76099 10.9926C2.74315 10.9023 2.74329 10.8093 2.76135 10.7191C2.77941 10.6289 2.81512 10.5426 2.86633 10.4662C2.91754 10.3898 2.98325 10.3248 3.05981 10.2738L7.55078 7.2738L3.05981 4.28455C2.90519 4.18151 2.79783 4.02143 2.76135 3.83923C2.72488 3.65704 2.76232 3.46749 2.86536 3.31287C2.96839 3.15825 3.1286 3.05051 3.31079 3.01404C3.49298 2.97756 3.68217 3.01549 3.83679 3.11853L10.6438 7.66931C10.6899 7.70039 10.7442 7.71716 10.7998 7.71716C10.8554 7.71716 10.9097 7.70039 10.9558 7.66931L17.7638 3.11853C17.9184 3.01563 18.1076 2.97845 18.2897 3.01501C18.4718 3.05158 18.632 3.15825 18.7349 3.31287C18.8378 3.46749 18.8749 3.65714 18.8384 3.83923C18.8018 4.02133 18.6944 4.18164 18.5398 4.28455L14.0458 7.27673L18.5378 10.2777Z" fill="white"></path></svg>