<svg xmlns="http://www.w3.org/2000/svg" width="67" height="67" viewBox="0 0 67 67" fill="none"><g clip-path="url(#clip0_1_792)"><path d="M27.4863 39.3505H17.3954L16.7333 38.7793V37.8437L17.9667 34.9129L16.9733 33.2572L14.4237 32.1726H12.495L11.4519 33.3565L10.7483 34.3417L11.2697 36.3701L11.7416 38.0258L11.8327 38.9283C11.3035 39.0643 10.7675 39.172 10.2268 39.2511C9.94537 39.2511 7.11427 39.4912 6.97355 39.4912H2.30478L0.202148 39.4333L0.938897 54.6749L2.02336 60.4701L4.05141 63.6741L5.04482 64.1957L7.30468 65.7025L9.43207 66.133H11.9735L18.3391 66.224H27.8753L27.5525 64.1957L27.7843 55.0888H28.7031C29.0482 55.1519 29.3826 55.2634 29.6964 55.42C30.0533 55.687 30.4328 55.9225 30.8305 56.1237L32.3868 56.6453L33.612 56.5045L35.2096 54.5176C35.3621 54.0866 35.4892 53.6471 35.5903 53.2012C35.5903 53.0108 35.0275 51.0321 35.0275 51.0321L33.612 49.989C33.238 49.9055 32.8593 49.8447 32.4779 49.8068C32.1965 49.8068 30.1186 49.6661 30.1186 49.6661C29.8294 49.5563 29.53 49.4758 29.2246 49.426H28.0491L27.4863 39.3505Z" fill="url(#paint0_linear_1_792)"></path><path d="M38.6365 25.8724C38.4725 25.8703 38.3159 25.8041 38.1999 25.6882C38.0839 25.5722 38.0178 25.4155 38.0157 25.2515V17.908C37.3835 17.9208 36.7752 18.1519 36.2939 18.562C35.6735 19.0992 34.8794 19.3933 34.0588 19.3899C32.0059 19.3899 30.3254 17.4361 30.3254 15.0352C30.3254 12.6343 31.981 10.6887 34.0588 10.6887C34.8789 10.6884 35.6719 10.9821 36.2939 11.5166C36.7711 11.9336 37.382 12.1657 38.0157 12.1707V1.58186C38.0157 1.41718 38.0811 1.25929 38.1976 1.14285C38.314 1.0264 38.4719 0.960938 38.6365 0.960938H43.4874C43.652 0.960937 43.81 1.0264 43.9264 1.14285C44.0429 1.25929 44.1082 1.41718 44.1082 1.58186C44.1082 1.74654 44.0429 1.90448 43.9264 2.02092C43.81 2.13737 43.652 2.20278 43.4874 2.20278H39.2574V12.8164C39.2585 12.8983 39.2432 12.9796 39.2124 13.0554C39.1816 13.1312 39.1359 13.2001 39.078 13.258C39.0201 13.3159 38.9512 13.3616 38.8754 13.3924C38.7996 13.4232 38.7184 13.4385 38.6365 13.4374H38.0819C37.1291 13.4433 36.2061 13.1053 35.4826 12.4853C35.0906 12.1344 34.5848 11.9374 34.0588 11.9306C32.6847 11.9306 31.5754 13.3214 31.5754 15.0352C31.5754 16.7489 32.6929 18.1481 34.0588 18.1481C34.5848 18.1413 35.0906 17.9443 35.4826 17.5934C36.2034 16.9678 37.1275 16.6264 38.0819 16.6331H38.6365C38.8012 16.6331 38.959 16.6985 39.0755 16.8149C39.1919 16.9314 39.2574 17.0893 39.2574 17.254V25.2184C39.2619 25.3027 39.2492 25.387 39.22 25.4662C39.1908 25.5454 39.1458 25.6178 39.0877 25.679C39.0296 25.7402 38.9595 25.7889 38.882 25.8222C38.8044 25.8554 38.7209 25.8725 38.6365 25.8724Z" fill="white"></path><path d="M52.1215 36.8089C49.7208 36.8089 47.7672 35.1531 47.7672 33.0751C47.7629 32.2567 48.0572 31.4649 48.595 30.8481C49.0058 30.3638 49.2367 29.7526 49.2489 29.1177H42.1548C41.9901 29.1177 41.8323 29.0523 41.7158 28.9359C41.5994 28.8194 41.5339 28.6615 41.5339 28.4968C41.5339 28.3321 41.5994 28.1742 41.7158 28.0577C41.8323 27.9413 41.9901 27.8759 42.1548 27.8759H49.8698C50.0344 27.8759 50.1924 27.9413 50.3088 28.0577C50.4253 28.1742 50.4906 28.3321 50.4906 28.4968V29.0515C50.4963 30.0083 50.1552 30.9348 49.5305 31.6594C49.1795 32.0481 48.9823 32.5514 48.9758 33.0751C48.9758 34.4494 50.3748 35.5588 52.0883 35.5588C53.8018 35.5588 55.1925 34.4411 55.1925 33.0751C55.1853 32.5531 54.9915 32.0509 54.6462 31.6594C54.0214 30.9348 53.6803 30.0083 53.686 29.0515V28.4968C53.6849 28.415 53.7002 28.3337 53.731 28.2579C53.7618 28.1821 53.8075 28.1132 53.8654 28.0553C53.9232 27.9974 53.992 27.9517 54.0679 27.9209C54.1437 27.8901 54.225 27.8748 54.3068 27.8759H64.9191V23.5626C64.9191 23.3979 64.9846 23.24 65.101 23.1235C65.2174 23.0071 65.3753 22.9417 65.54 22.9417C65.7046 22.9417 65.8625 23.0071 65.9789 23.1235C66.0953 23.24 66.1608 23.3979 66.1608 23.5626V28.53C66.1608 28.6946 66.0953 28.8526 65.9789 28.969C65.8625 29.0855 65.7046 29.1509 65.54 29.1509H54.9277C54.9365 29.7864 55.1678 30.3987 55.5816 30.8812C56.1234 31.4955 56.4184 32.289 56.4094 33.1082C56.4673 35.1366 54.5221 36.8089 52.1215 36.8089Z" fill="white"></path><path d="M65.5732 17.7424C65.4085 17.7424 65.2505 17.677 65.1341 17.5606C65.0177 17.4441 64.9523 17.2862 64.9523 17.1215V12.2369C64.9501 9.57784 63.8935 7.02812 62.0142 5.14707C60.135 3.26602 57.5865 2.20717 54.9277 2.20278H50.0686C49.9039 2.20278 49.746 2.13737 49.6295 2.02092C49.5131 1.90448 49.4478 1.74654 49.4478 1.58186C49.4478 1.41718 49.5131 1.25929 49.6295 1.14285C49.746 1.0264 49.9039 0.960938 50.0686 0.960938H54.9277C57.9158 0.965322 60.7801 2.155 62.8922 4.26894C65.0044 6.38288 66.1918 9.24848 66.194 12.2369V17.1215C66.1951 17.2034 66.1797 17.2846 66.1489 17.3604C66.1181 17.4363 66.0725 17.5052 66.0146 17.5631C65.9568 17.6209 65.8879 17.6667 65.812 17.6975C65.7362 17.7283 65.655 17.7436 65.5732 17.7424Z" fill="white"></path><path d="M27.7346 66.961H11.4685C8.47899 66.9566 5.61336 65.7658 3.501 63.6501C1.38863 61.5344 0.202145 58.6667 0.202148 55.6768V51.6201C0.202148 51.4554 0.267606 51.2974 0.384037 51.181C0.500468 51.0645 0.658335 50.9991 0.822994 50.9991C0.987652 50.9991 1.14562 51.0645 1.26205 51.181C1.37848 51.2974 1.44384 51.4554 1.44384 51.6201V55.6768C1.44603 58.3359 2.50268 60.8856 4.38194 62.7666C6.2612 64.6477 8.80974 65.7065 11.4685 65.7109H27.1137V55.1055C27.1137 54.9408 27.1792 54.7829 27.2956 54.6665C27.4121 54.55 27.5699 54.4846 27.7346 54.4846H28.2892C29.2436 54.4779 30.1677 54.8193 30.8885 55.4449C31.2817 55.7939 31.7867 55.9907 32.3123 55.9997C33.6864 55.9997 34.7957 54.6005 34.7957 52.8868C34.7957 51.173 33.6782 49.7739 32.3123 49.7739C31.7851 49.7822 31.2789 49.9823 30.8885 50.3368C30.165 50.9568 29.242 51.2949 28.2892 51.2889H27.7346C27.5699 51.2889 27.4121 51.2235 27.2956 51.1071C27.1792 50.9906 27.1137 50.8327 27.1137 50.668V40.0543H25.5161C25.3515 40.0543 25.1935 39.9889 25.0771 39.8725C24.9607 39.756 24.8953 39.5981 24.8953 39.4334C24.8953 39.2687 24.9607 39.1108 25.0771 38.9944C25.1935 38.8779 25.3515 38.8125 25.5161 38.8125H27.7346C27.8992 38.8125 28.0572 38.8779 28.1736 38.9944C28.2901 39.1108 28.3554 39.2687 28.3554 39.4334V50.0471C28.9876 50.0343 29.596 49.8032 30.0773 49.393C30.6977 48.8559 31.4917 48.5618 32.3123 48.5651C34.3652 48.5651 36.0457 50.519 36.0457 52.9199C36.0457 55.3208 34.3901 57.2746 32.3123 57.2746C31.4917 57.2779 30.6977 56.9838 30.0773 56.4467C29.596 56.0365 28.9876 55.8055 28.3554 55.7927V66.4063C28.339 66.5593 28.2665 66.7007 28.1518 66.8032C28.0371 66.9056 27.8884 66.9619 27.7346 66.961Z" fill="white"></path><path d="M0.822806 45.9076C0.658148 45.9076 0.50028 45.8421 0.383849 45.7257C0.267418 45.6093 0.201961 45.4513 0.201961 45.2866V39.4334C0.200847 39.3515 0.216223 39.2703 0.247029 39.1945C0.277835 39.1187 0.323449 39.0497 0.381323 38.9919C0.439197 38.934 0.508099 38.8883 0.583926 38.8574C0.659754 38.8266 0.740967 38.8114 0.822806 38.8125H11.4352C11.4283 38.1741 11.1967 37.5585 10.7812 37.0739C10.2393 36.4595 9.94439 35.6661 9.9534 34.8469C9.9534 32.7937 11.8987 31.113 14.2993 31.113C16.6999 31.113 18.6535 32.7688 18.6535 34.8469C18.6599 35.6681 18.3654 36.4632 17.8257 37.0821C17.4126 37.565 17.1812 38.1771 17.1717 38.8125H19.2412C19.4059 38.8125 19.5638 38.8779 19.6803 38.9943C19.7967 39.1108 19.8621 39.2687 19.8621 39.4334C19.8621 39.5981 19.7967 39.756 19.6803 39.8725C19.5638 39.9889 19.4059 40.0543 19.2412 40.0543H16.5509C16.3869 40.0522 16.2302 39.9861 16.1143 39.8701C15.9983 39.7541 15.9322 39.5974 15.93 39.4334V38.8704C15.9244 37.9136 16.2655 36.9871 16.8903 36.2625C17.2439 35.8755 17.4415 35.3711 17.445 34.8469C17.445 33.4726 16.046 32.3632 14.3325 32.3632C12.6189 32.3632 11.2282 33.4808 11.2282 34.8469C11.2325 35.3694 11.4267 35.8726 11.7746 36.2625C12.3994 36.9871 12.7404 37.9136 12.7348 38.8704V39.4334C12.7348 39.5981 12.6694 39.756 12.553 39.8725C12.4366 39.9889 12.2786 40.0543 12.1139 40.0543H1.50165V45.2866C1.50079 45.3729 1.48216 45.4581 1.44699 45.5369C1.41181 45.6157 1.36079 45.6864 1.29713 45.7446C1.23347 45.8028 1.15854 45.8473 1.07694 45.8754C0.99535 45.9034 0.908811 45.9144 0.822806 45.9076Z" fill="white"></path><path d="M27.7346 40.0543C27.5699 40.0543 27.4121 39.9889 27.2956 39.8724C27.1792 39.756 27.1137 39.598 27.1137 39.4333V28.8114C26.4787 28.8223 25.8671 29.0535 25.3837 29.4655C24.7632 30.0026 23.9693 30.2967 23.1487 30.2934C21.0957 30.2934 19.4153 28.3395 19.4153 25.9386C19.4153 23.5377 21.0709 21.5839 23.1487 21.5839C23.9693 21.5805 24.7632 21.8747 25.3837 22.4118C25.8653 22.8268 26.478 23.0584 27.1137 23.0658V13.1393H11.4685C8.80974 13.1437 6.2612 14.2025 4.38194 16.0836C2.50268 17.9646 1.44603 20.5143 1.44384 23.1734V39.4333C1.44384 39.598 1.37848 39.756 1.26205 39.8724C1.14562 39.9889 0.987652 40.0543 0.822994 40.0543C0.658335 40.0543 0.500468 39.9889 0.384037 39.8724C0.267606 39.756 0.202148 39.598 0.202148 39.4333V23.1734C0.204338 20.185 1.3918 17.3194 3.50393 15.2055C5.61605 13.0915 8.48042 11.9018 11.4685 11.8975H27.7346C27.8992 11.8975 28.0572 11.9629 28.1736 12.0793C28.2901 12.1958 28.3554 12.3537 28.3554 12.5184V23.753C28.3554 23.9176 28.2901 24.0756 28.1736 24.192C28.0572 24.3085 27.8992 24.3739 27.7346 24.3739H27.1717C26.2113 24.3757 25.2835 24.0252 24.5642 23.3887C24.171 23.0397 23.666 22.843 23.1404 22.834C21.7662 22.834 20.657 24.2332 20.657 25.9469C20.657 27.6607 21.7745 29.0598 23.1404 29.0598C23.6684 29.0553 24.1759 28.8547 24.5642 28.4968C25.2877 27.8768 26.2107 27.5388 27.1634 27.5447H27.7263C27.8903 27.5469 28.047 27.613 28.1629 27.729C28.2789 27.845 28.345 28.0017 28.3471 28.1657V39.4085C28.3493 39.4911 28.3353 39.5734 28.3057 39.6506C28.2761 39.7278 28.2315 39.7983 28.1746 39.8583C28.1178 39.9183 28.0497 39.9665 27.9742 40.0001C27.8987 40.0337 27.8172 40.0521 27.7346 40.0543Z" fill="white"></path><path d="M43.9925 66.9608H27.7346C27.57 66.9608 27.4121 66.8954 27.2957 66.779C27.1793 66.6625 27.1138 66.5046 27.1138 66.3399C27.1138 66.1752 27.1793 66.0173 27.2957 65.9008C27.4121 65.7844 27.57 65.719 27.7346 65.719H43.9925C46.6527 65.7146 49.2025 64.6546 51.082 62.7718C52.9615 60.8889 54.0171 58.3371 54.0171 55.6766V40.0542H44.0257C44.0379 40.689 44.2689 41.3002 44.6797 41.7844C45.2175 42.4012 45.5118 43.1931 45.5074 44.0115C45.5074 46.0647 43.5538 47.7453 41.1532 47.7453C38.7526 47.7453 36.799 46.0895 36.799 44.0115C36.7947 43.1931 37.089 42.4012 37.6268 41.7844C38.0376 41.3002 38.2685 40.689 38.2807 40.0542H27.6685C27.5038 40.0542 27.3459 39.9887 27.2295 39.8723C27.1131 39.7559 27.0476 39.5979 27.0476 39.4332C27.0476 39.2686 27.1131 39.1106 27.2295 38.9942C27.3459 38.8777 27.5038 38.8123 27.6685 38.8123H38.9016C39.0662 38.8123 39.2242 38.8777 39.3406 38.9942C39.4571 39.1106 39.5224 39.2686 39.5224 39.4332V39.9879C39.5267 40.943 39.1891 41.8681 38.5705 42.5958C38.2119 42.9803 38.0109 43.4856 38.0076 44.0115C38.0076 45.3858 39.4066 46.4952 41.1201 46.4952C42.8336 46.4952 44.2326 45.3775 44.2326 44.0115C44.2292 43.4872 44.0315 42.9829 43.678 42.5958C43.0532 41.8712 42.7121 40.9447 42.7178 39.9879V39.4332C42.7178 39.2686 42.7831 39.1106 42.8996 38.9942C43.016 38.8777 43.174 38.8123 43.3386 38.8123H54.5718C54.6536 38.8112 54.7348 38.8265 54.8106 38.8573C54.8865 38.8881 54.9554 38.9338 55.0132 38.9917C55.0711 39.0496 55.1168 39.1185 55.1476 39.1943C55.1784 39.2702 55.1937 39.3514 55.1926 39.4332V55.6766C55.1927 58.6551 54.0154 61.5128 51.9173 63.6266C49.8192 65.7404 46.9705 66.939 43.9925 66.9608Z" fill="white"></path></g><defs><linearGradient id="paint0_linear_1_792" x1="17.8962" y1="32.1726" x2="17.8962" y2="66.224" gradientUnits="userSpaceOnUse"><stop stop-color="#DD42FA"></stop><stop offset="1" stop-color="#EEBB6B"></stop></linearGradient><clipPath id="clip0_1_792"><rect width="66" height="66" fill="white" transform="translate(0.202148 0.960938)"></rect></clipPath></defs></svg>