<svg xmlns="http://www.w3.org/2000/svg" width="70" height="69" viewBox="0 0 70 69" fill="none"><g clip-path="url(#clip0_1_806)"><path d="M41.9184 42.7803L41.3578 37.4989L42.6275 35.9307L45.1586 32.5506L44.9772 31.3969L41.6381 30.7956L39.6676 30.56L39.0575 30.0481L36.3779 25.7498L34.729 25.4248C34.729 25.4248 33.3191 26.8548 33.2697 26.993C33.2202 27.1311 29.2793 31.0556 29.2793 31.0556L26.0886 31.6081L25.6187 32.7213L26.8389 34.9395L29.6091 37.442L28.7846 42.0653L29.2051 43.6903L30.5737 43.8285L35.3144 41.464C35.6013 41.7296 35.9163 41.964 36.2543 42.1628C36.3944 42.1628 39.7253 43.5034 39.7253 43.5034L40.7642 43.7797L41.8855 43.4141L41.9184 42.7803Z" fill="url(#paint0_linear_1_806)"></path><path d="M35.4299 18.242C35.2659 18.242 35.1086 18.1778 34.9927 18.0635C34.8767 17.9493 34.8115 17.7942 34.8115 17.6326V1.17092C34.8115 1.00929 34.8767 0.85429 34.9927 0.740007C35.1086 0.625723 35.2659 0.561523 35.4299 0.561523C35.5939 0.561523 35.7512 0.625723 35.8672 0.740007C35.9831 0.85429 36.0482 1.00929 36.0482 1.17092V17.6326C36.0493 17.713 36.0341 17.7927 36.0034 17.8671C35.9728 17.9415 35.9272 18.0092 35.8696 18.066C35.8119 18.1228 35.7434 18.1676 35.6679 18.1978C35.5924 18.2281 35.5114 18.2431 35.4299 18.242Z" fill="white"></path><path d="M35.4299 68.5616C35.2659 68.5616 35.1086 68.4974 34.9927 68.3831C34.8767 68.2688 34.8115 68.1138 34.8115 67.9522V51.4905C34.8115 51.3289 34.8767 51.1739 34.9927 51.0596C35.1086 50.9453 35.2659 50.8811 35.4299 50.8811C35.5939 50.8811 35.7512 50.9453 35.8672 51.0596C35.9831 51.1739 36.0482 51.3289 36.0482 51.4905V67.9522C36.0493 68.0325 36.0341 68.1123 36.0034 68.1867C35.9728 68.2611 35.9272 68.3287 35.8696 68.3855C35.8119 68.4424 35.7434 68.4872 35.6679 68.5174C35.5924 68.5476 35.5114 68.5627 35.4299 68.5616Z" fill="white"></path><path d="M69.3158 35.1751H52.6037C52.4397 35.1751 52.2824 35.1109 52.1664 34.9966C52.0504 34.8823 51.9854 34.7273 51.9854 34.5657C51.9854 34.4041 52.0504 34.2491 52.1664 34.1348C52.2824 34.0205 52.4397 33.9563 52.6037 33.9563H69.3158C69.4797 33.9563 69.637 34.0205 69.7529 34.1348C69.8689 34.2491 69.9341 34.4041 69.9341 34.5657C69.9341 34.7273 69.8689 34.8823 69.7529 34.9966C69.637 35.1109 69.4797 35.1751 69.3158 35.1751Z" fill="white"></path><path d="M18.2561 35.1751H1.56879C1.4048 35.1751 1.24756 35.1109 1.1316 34.9966C1.01563 34.8823 0.950439 34.7273 0.950439 34.5657C0.950439 34.4041 1.01563 34.2491 1.1316 34.1348C1.24756 34.0205 1.4048 33.9563 1.56879 33.9563H18.2808C18.4448 33.9563 18.6021 34.0205 18.718 34.1348C18.834 34.2491 18.8992 34.4041 18.8992 34.5657C18.8992 34.7273 18.834 34.8823 18.718 34.9966C18.6021 35.1109 18.4448 35.1751 18.2808 35.1751H18.2561Z" fill="white"></path><path d="M30.1781 44.584C29.7357 44.5852 29.3049 44.4456 28.9496 44.1859C28.6342 43.9581 28.3899 43.6479 28.2442 43.2903C28.0985 42.9328 28.0572 42.5422 28.1251 42.1627L28.9496 37.4744L25.4951 34.1512C25.2159 33.8822 25.0185 33.5416 24.9253 33.1679C24.8321 32.7942 24.8467 32.4023 24.9676 32.0363C25.0886 31.6704 25.3109 31.3451 25.6096 31.0971C25.9082 30.8491 26.2712 30.6884 26.6577 30.633L29.23 30.2592C29.3926 30.2383 29.5571 30.281 29.6881 30.3782C29.8192 30.4754 29.9063 30.6194 29.9308 30.7793C29.9544 30.9387 29.913 31.1008 29.8156 31.2302C29.7183 31.3596 29.573 31.4458 29.4114 31.4699L26.839 31.8355C26.6715 31.8429 26.5102 31.9005 26.3767 32.0005C26.2432 32.1006 26.1438 32.2384 26.0918 32.3955C26.0399 32.5527 26.0377 32.7217 26.0858 32.8801C26.1339 33.0385 26.2298 33.1786 26.3608 33.2818L30.0462 36.8326C30.1187 36.9004 30.1732 36.9848 30.2048 37.0783C30.2365 37.1719 30.2443 37.2716 30.2276 37.3688L29.3536 42.374C29.3082 42.5339 29.3137 42.7038 29.3692 42.8606C29.4247 43.0175 29.5277 43.1538 29.6643 43.2512C29.8008 43.3486 29.9643 43.4023 30.1329 43.4053C30.3014 43.4083 30.4668 43.3603 30.6068 43.2677L35.1662 40.9033C35.2546 40.8556 35.3539 40.8307 35.4547 40.8307C35.5555 40.8307 35.6547 40.8556 35.7432 40.9033L40.3026 43.2677C40.4432 43.3585 40.6087 43.4048 40.7767 43.4004C40.9448 43.3959 41.1074 43.341 41.2429 43.2428C41.3784 43.1447 41.4801 43.0081 41.5346 42.8513C41.589 42.6946 41.5936 42.5252 41.5476 42.3658L40.7231 37.3688C40.7031 37.2723 40.7085 37.1723 40.7388 37.0784C40.7691 36.9846 40.8233 36.8999 40.8962 36.8326L44.5899 33.2818C44.7081 33.1735 44.7913 33.0334 44.8294 32.8788C44.8675 32.7243 44.8587 32.5621 44.8042 32.4124C44.7586 32.2601 44.6687 32.1242 44.5456 32.0217C44.4225 31.9192 44.2717 31.8545 44.1116 31.8355L39.0082 31.1042C38.9095 31.0901 38.8158 31.0524 38.7353 30.9943C38.6548 30.9363 38.5899 30.8596 38.5465 30.7711L36.1967 26.221C36.1191 26.0858 36.0065 25.9733 35.8704 25.8951C35.7342 25.8168 35.5794 25.7756 35.4218 25.7756C35.2642 25.7756 35.1093 25.8168 34.9731 25.8951C34.837 25.9733 34.7243 26.0858 34.6467 26.221L34.0449 27.4317C33.9722 27.5756 33.8447 27.6853 33.6903 27.7371C33.5359 27.7888 33.367 27.7783 33.2204 27.7079C33.1473 27.6733 33.0821 27.6246 33.0283 27.5648C32.9745 27.505 32.9333 27.4353 32.9072 27.3596C32.8811 27.284 32.8706 27.204 32.8762 27.1243C32.8819 27.0445 32.9036 26.9667 32.9401 26.8954L33.542 25.6847C33.7145 25.3384 33.982 25.0467 34.3143 24.8427C34.6466 24.6387 35.0303 24.5305 35.4218 24.5305C35.8133 24.5305 36.1969 24.6387 36.5292 24.8427C36.8614 25.0467 37.129 25.3384 37.3015 25.6847L39.4946 29.9586L44.2683 30.6492C44.6555 30.7033 45.0195 30.8632 45.3192 31.1107C45.6189 31.3582 45.8423 31.6833 45.9641 32.0495C46.0859 32.4156 46.1014 32.808 46.0086 33.1824C45.9158 33.5567 45.7184 33.8979 45.439 34.1675L41.9763 37.4988L42.8008 42.1789C42.8696 42.5597 42.8285 42.952 42.6821 43.3109C42.5357 43.6698 42.2899 43.9809 41.9728 44.2088C41.6556 44.4367 41.2797 44.5721 40.8882 44.5996C40.4967 44.6272 40.1052 44.5457 39.7584 44.3646L35.4877 42.1464L31.2169 44.3646C30.8958 44.5252 30.5378 44.6008 30.1781 44.584Z" fill="white"></path><path d="M35.4298 66.0266C26.9632 66.0266 18.8434 62.7119 12.8565 56.8119C6.86971 50.9118 3.50635 42.9096 3.50635 34.5657C3.50635 26.2217 6.86971 18.2195 12.8565 12.3195C18.8434 6.41943 26.9632 3.10482 35.4298 3.10482C39.4323 3.09584 43.3999 3.8376 47.1209 5.2905C47.2027 5.31492 47.2785 5.3558 47.3435 5.41057C47.4085 5.46533 47.4613 5.53276 47.4985 5.60864C47.5357 5.68452 47.5566 5.76723 47.5597 5.85144C47.5628 5.93566 47.5482 6.0196 47.5167 6.09797C47.4853 6.17633 47.4376 6.2474 47.3768 6.3067C47.3161 6.36601 47.2436 6.41223 47.1638 6.44249C47.084 6.47274 46.9986 6.4864 46.9132 6.48251C46.8277 6.47862 46.744 6.45731 46.6674 6.41992C42.4668 4.7927 37.9537 4.09865 33.4498 4.38733C28.9458 4.676 24.562 5.94028 20.6106 8.09C16.6593 10.2397 13.2378 13.222 10.5899 16.8242C7.94211 20.4264 6.13316 24.5599 5.29206 28.93C4.45097 33.3002 4.59844 37.7993 5.72393 42.1069C6.84941 46.4144 8.92513 50.4242 11.8033 53.8506C14.6815 57.2769 18.2912 60.0354 22.3751 61.9293C26.459 63.8233 30.9164 64.8061 35.4298 64.8078C38.2157 64.8097 40.989 64.4407 43.6746 63.7108C43.7525 63.6887 43.8342 63.6821 43.9148 63.6914C43.9954 63.7007 44.0732 63.7258 44.1439 63.7651C44.2145 63.8045 44.2765 63.8573 44.3261 63.9205C44.3758 63.9837 44.4122 64.0561 44.4331 64.1334C44.4556 64.2102 44.4623 64.2907 44.4528 64.3701C44.4434 64.4495 44.418 64.5263 44.3781 64.5959C44.3381 64.6655 44.2845 64.7265 44.2204 64.7755C44.1562 64.8244 44.0828 64.8602 44.0044 64.8809C41.2127 65.6468 38.3277 66.0323 35.4298 66.0266ZM49.7674 62.5977C49.6543 62.5969 49.5435 62.5664 49.4464 62.5093C49.3492 62.4521 49.2694 62.3705 49.2151 62.2727C49.1445 62.1298 49.1325 61.9657 49.1817 61.8143C49.2308 61.663 49.3373 61.5362 49.4789 61.4602C53.1428 59.6018 56.3892 57.035 59.0245 53.9131C61.6598 50.7911 63.6298 47.1779 64.8171 43.2892C66.0045 39.4005 66.3847 35.3159 65.9351 31.2792C65.4855 27.2425 64.2154 23.3364 62.2005 19.794C62.153 19.7244 62.1207 19.6459 62.1054 19.5635C62.0901 19.481 62.0923 19.3963 62.1117 19.3147C62.1312 19.2331 62.1675 19.1563 62.2184 19.0892C62.2694 19.022 62.3338 18.9659 62.4077 18.9245C62.4817 18.883 62.5636 18.857 62.6482 18.8481C62.7328 18.8392 62.8182 18.8476 62.8994 18.8728C62.9805 18.898 63.0555 18.9394 63.1197 18.9945C63.1838 19.0495 63.2358 19.117 63.2723 19.1928C65.3715 22.8752 66.6965 26.9367 67.1681 31.1348C67.6396 35.3329 67.2481 39.5817 66.0169 43.6274C64.7857 47.6732 62.7401 51.433 60.0021 54.6825C57.2641 57.9321 53.8898 60.6046 50.0807 62.5408C49.9825 62.5844 49.875 62.6039 49.7674 62.5977ZM35.4298 62.0858C29.9068 62.0858 24.5079 60.4718 19.9157 57.4478C15.3234 54.4239 11.7443 50.1258 9.6307 45.0972C7.51714 40.0685 6.96416 34.5352 8.04164 29.1968C9.11913 23.8584 11.7786 18.9547 15.684 15.106C19.5894 11.2572 24.5651 8.63621 29.982 7.57434C35.3989 6.51246 41.0137 7.05743 46.1163 9.14036C51.2189 11.2233 55.5802 14.7507 58.6486 19.2763C61.717 23.802 63.3547 29.1227 63.3547 34.5657C63.3438 41.8612 60.3983 48.8548 55.1637 54.0135C49.9292 59.1722 42.8326 62.075 35.4298 62.0858ZM35.4298 8.26431C30.1514 8.26431 24.9916 9.80686 20.6028 12.6969C16.2139 15.5869 12.7933 19.6946 10.7733 24.5006C8.75335 29.3065 8.22483 34.5948 9.2546 39.6968C10.2844 44.7988 12.8261 49.4852 16.5585 53.1635C20.2909 56.8418 25.0463 59.3468 30.2233 60.3617C35.4003 61.3765 40.7664 60.8556 45.643 58.865C50.5197 56.8743 54.6877 53.5032 57.6202 49.1779C60.5528 44.8527 62.118 39.7676 62.118 34.5657C62.1093 27.5927 59.2947 20.9079 54.2916 15.9773C49.2885 11.0467 42.5053 8.27291 35.4298 8.26431ZM58.7789 14.6426C58.692 14.6418 58.606 14.6232 58.5266 14.5883C58.4472 14.5533 58.3759 14.5027 58.3172 14.4395C56.6153 12.5427 54.676 10.8663 52.5459 9.45061C52.4782 9.4058 52.4202 9.34828 52.3751 9.28136C52.33 9.21443 52.2987 9.13942 52.283 9.06057C52.2673 8.98173 52.2675 8.90059 52.2836 8.82183C52.2997 8.74307 52.3314 8.66823 52.3769 8.60154C52.4224 8.53485 52.4807 8.47764 52.5486 8.43318C52.6165 8.38871 52.6927 8.35784 52.7727 8.34237C52.8527 8.32691 52.935 8.32713 53.0149 8.34302C53.0948 8.3589 53.1708 8.39015 53.2385 8.43496C55.4659 9.90902 57.4963 11.6534 59.2818 13.627C59.3893 13.7485 59.4443 13.9066 59.435 14.0675C59.4258 14.2284 59.353 14.3795 59.2323 14.4883C59.1715 14.5433 59.0999 14.5853 59.0219 14.6119C58.9439 14.6385 58.8612 14.6489 58.7789 14.6426Z" fill="white"></path><path d="M35.4298 57.9175C30.4698 57.9258 25.6339 56.3902 21.6117 53.5299C21.5457 53.483 21.4897 53.4237 21.4469 53.3554C21.4041 53.2871 21.3754 53.2112 21.3623 53.132C21.3493 53.0527 21.3523 52.9718 21.371 52.8937C21.3897 52.8156 21.4239 52.7419 21.4715 52.6768C21.5192 52.6117 21.5794 52.5565 21.6487 52.5143C21.718 52.4722 21.7949 52.4439 21.8753 52.431C21.9557 52.4182 22.0379 52.4211 22.1172 52.4396C22.1964 52.458 22.2711 52.4917 22.3372 52.5386C26.9589 55.8172 32.6693 57.2489 38.319 56.5456C43.9687 55.8423 49.1384 53.0562 52.7877 48.748C56.437 44.4397 58.295 38.9292 57.9879 33.3253C57.6808 27.7214 55.2312 22.4402 51.1323 18.5444C47.0333 14.6486 41.5893 12.4274 35.8956 12.3279C30.2019 12.2284 24.6812 14.2579 20.4447 18.008C16.2081 21.7581 13.5701 26.9505 13.0616 32.5401C12.553 38.1297 14.2116 43.7017 17.7037 48.1348C17.8042 48.263 17.849 48.4254 17.8282 48.5861C17.8073 48.7469 17.7226 48.8929 17.5924 48.992C17.4623 49.0911 17.2975 49.1353 17.1344 49.1147C16.9713 49.0941 16.8232 49.0105 16.7226 48.8823C13.4749 44.7979 11.7177 39.7546 11.7345 34.5657C11.7329 29.9448 13.122 25.4273 15.7259 21.5845C18.3299 17.7417 22.0317 14.7464 26.3633 12.9773C30.6949 11.2082 35.4616 10.7449 40.0604 11.646C44.6592 12.5471 48.8835 14.7721 52.199 18.0395C55.5145 21.307 57.7722 25.4701 58.6866 30.0022C59.6009 34.5344 59.1308 39.232 57.3357 43.5008C55.5407 47.7696 52.5012 51.4179 48.6019 53.9841C44.7026 56.5503 40.1186 57.9191 35.4298 57.9175ZM35.4298 54.3506C31.4572 54.3506 27.5738 53.1895 24.2708 51.0143C20.9678 48.839 18.3936 45.7473 16.8738 42.1301C15.3539 38.513 14.9566 34.5328 15.7323 30.6931C16.5079 26.8534 18.4215 23.3267 21.2311 20.5589C24.0407 17.7911 27.6202 15.9066 31.5167 15.1438C35.4132 14.381 39.4516 14.7742 43.1214 16.2735C46.7911 17.7728 49.9273 20.311 52.1332 23.567C54.3391 26.8231 55.5156 30.6506 55.514 34.5657C55.5053 39.8102 53.3856 44.8372 49.6203 48.5433C45.855 52.2495 40.7515 54.3322 35.4298 54.3343V54.3506ZM35.4298 15.9833C31.7025 15.9833 28.0589 17.0724 24.9596 19.1131C21.8604 21.1537 19.4446 24.0541 18.0179 27.4476C16.5911 30.8411 16.2174 34.5754 16.944 38.1782C17.6706 41.781 19.4647 45.0907 22.0998 47.6887C24.7348 50.2866 28.0924 52.0563 31.7478 52.7739C35.4033 53.4915 39.1926 53.1249 42.6367 51.7203C46.0807 50.3157 49.0249 47.9362 51.0969 44.8828C53.1688 41.8293 54.2757 38.239 54.2773 34.5657C54.2729 29.64 52.2861 24.9173 48.7527 21.4336C45.2193 17.9499 40.4279 15.9897 35.4298 15.9833Z" fill="white"></path></g><defs><linearGradient id="paint0_linear_1_806" x1="35.3886" y1="25.4248" x2="35.3886" y2="43.8285" gradientUnits="userSpaceOnUse"><stop stop-color="#DD42FA"></stop><stop offset="1" stop-color="#EEBB6B"></stop></linearGradient><clipPath id="clip0_1_806"><rect width="69" height="68" fill="white" transform="translate(0.925781 0.561523)"></rect></clipPath></defs></svg>