<svg xmlns="http://www.w3.org/2000/svg" width="59" height="46" viewBox="0 0 59 46" fill="none"><g clip-path="url(#clip0_1_753)"><path d="M34.0484 11.3527L1.60645 11.4177V8.70083L2.40386 6.65907L4.07193 3.01482L6.1794 2.46167L8.83203 1.34725L11.1185 1.16016H12.2902L51.0464 1.28217L53.3898 1.7133L55.9286 3.38087L57.9628 6.41504L58.1499 9.75018L58.215 11.1737" fill="url(#paint0_linear_1_753)"></path><path d="M58.2557 19.2511C58.0938 19.2511 57.9386 19.1869 57.8242 19.0725C57.7097 18.958 57.6454 18.8029 57.6454 18.6411V9.91277C57.6454 7.75537 56.7881 5.6863 55.2621 4.16078C53.7362 2.63527 51.6665 1.77828 49.5085 1.77828H33.6903C33.5285 1.77828 33.3732 1.71401 33.2588 1.59959C33.1443 1.48518 33.0801 1.33 33.0801 1.16819C33.0801 1.00639 33.1443 0.851206 33.2588 0.736792C33.3732 0.622379 33.5285 0.558105 33.6903 0.558105H49.5085C51.9845 0.558105 54.3593 1.54081 56.1109 3.29034C57.8625 5.03987 58.8475 7.41306 58.8497 9.88834V18.6166C58.8541 18.7792 58.7942 18.9371 58.683 19.0558C58.5718 19.1746 58.4183 19.2448 58.2557 19.2511Z" fill="white"></path><path d="M27.2622 1.80269H19.0114C18.8495 1.80269 18.6944 1.73842 18.5799 1.62401C18.4655 1.50959 18.4011 1.35441 18.4011 1.19261C18.4011 1.0308 18.4655 0.87562 18.5799 0.761206C18.6944 0.646793 18.8495 0.58252 19.0114 0.58252H27.2622C27.4241 0.58252 27.5793 0.646793 27.6937 0.761206C27.8082 0.87562 27.8725 1.0308 27.8725 1.19261C27.8725 1.35441 27.8082 1.50959 27.6937 1.62401C27.5793 1.73842 27.4241 1.80269 27.2622 1.80269Z" fill="white"></path><path d="M49.5248 45.5744H10.1991C7.72448 45.5722 5.35177 44.5885 3.60195 42.8392C1.85213 41.0899 0.868121 38.718 0.865967 36.2441V9.91281C0.868121 7.43893 1.85213 5.06698 3.60195 3.31768C5.35177 1.56839 7.72448 0.584674 10.1991 0.58252H12.5669C12.7287 0.58252 12.884 0.646793 12.9984 0.761206C13.1129 0.87562 13.1771 1.0308 13.1771 1.19261C13.1771 1.35441 13.1129 1.50959 12.9984 1.62401C12.884 1.73842 12.7287 1.80269 12.5669 1.80269H10.1991C8.04105 1.80269 5.97131 2.65974 4.44534 4.18525C2.91937 5.71076 2.06217 7.77978 2.06217 9.93718V36.2685C2.06217 38.4259 2.91937 40.495 4.44534 42.0205C5.97131 43.546 8.04105 44.403 10.1991 44.403H49.5248C51.6829 44.403 53.7525 43.546 55.2785 42.0205C56.8044 40.495 57.6617 38.4259 57.6617 36.2685V25.0917C57.6617 24.9299 57.7261 24.7748 57.8405 24.6603C57.955 24.5459 58.1102 24.4817 58.272 24.4817C58.4339 24.4817 58.5891 24.5459 58.7036 24.6603C58.818 24.7748 58.8823 24.9299 58.8823 25.0917V36.2441C58.8812 37.4712 58.6383 38.6859 58.1673 39.819C57.6964 40.9521 57.0067 41.9814 56.1377 42.8479C55.2686 43.7144 54.2374 44.4012 53.1027 44.869C51.968 45.3369 50.7522 45.5765 49.5248 45.5744Z" fill="white"></path><path d="M30.1019 11.9709H1.48429C1.32244 11.9709 1.16726 11.9066 1.05281 11.7922C0.938366 11.6778 0.874023 11.5226 0.874023 11.3608C0.874023 11.199 0.938366 11.0438 1.05281 10.9294C1.16726 10.815 1.32244 10.7507 1.48429 10.7507H30.1019C30.2637 10.7507 30.4189 10.815 30.5334 10.9294C30.6478 11.0438 30.7122 11.199 30.7122 11.3608C30.7122 11.5226 30.6478 11.6778 30.5334 11.7922C30.4189 11.9066 30.2637 11.9709 30.1019 11.9709Z" fill="white"></path><path d="M18.4335 25.8401H8.62036V26.9545H18.4335V25.8401Z" fill="white"></path><path d="M21.314 34.6335H8.62036V35.748H21.314V34.6335Z" fill="white"></path><path d="M30.94 31.7051H11.688V32.8195H30.94V31.7051Z" fill="white"></path><path d="M18.4335 28.7686H11.688V29.883H18.4335V28.7686Z" fill="white"></path><path d="M41.4042 28.7686H34.6587V29.883H41.4042V28.7686Z" fill="white"></path><path d="M51.0628 28.7686H42.6736V29.883H51.0628V28.7686Z" fill="white"></path><path d="M33.3892 28.7686H19.7029V29.883H33.3892V28.7686Z" fill="white"></path><path d="M18.4335 37.5701H11.688V38.6845H18.4335V37.5701Z" fill="white"></path><path d="M25.4638 37.5701H19.7029V38.6845H25.4638V37.5701Z" fill="white"></path><path d="M40.5417 37.5701H26.7415V38.6845H40.5417V37.5701Z" fill="white"></path><path d="M51.0546 37.5701H41.811V38.6845H51.0546V37.5701Z" fill="white"></path><path d="M10.6223 20.8374L8.50659 18.82L10.6223 16.8108H11.6312L9.50742 18.82L11.6312 20.8374H10.6223Z" fill="white"></path><path d="M15.5532 13.7686L13.1528 23.5299H12.3391L14.7313 13.7686H15.5532Z" fill="white"></path><path d="M16.1553 16.8108H17.1642L19.288 18.82L17.1642 20.8374H16.1553L18.279 18.82L16.1553 16.8108Z" fill="white"></path></g><defs><linearGradient id="paint0_linear_1_753" x1="52.6912" y1="6.289" x2="29.9114" y2="11.4207" gradientUnits="userSpaceOnUse"><stop stop-color="#EEBB6B"></stop><stop offset="1" stop-color="#DD42FA"></stop></linearGradient><clipPath id="clip0_1_753"><rect width="58" height="45" fill="white" transform="translate(0.865967 0.58252)"></rect></clipPath></defs></svg>