<svg xmlns="http://www.w3.org/2000/svg" width="62" height="59" viewBox="0 0 62 59" fill="none"><g clip-path="url(#clip0_1_777)"><path d="M60.742 36.5984L1.02697 36.7709C1.02697 36.7709 0.906006 38.3605 0.906006 38.533C0.906006 38.7054 2.0021 42.8071 2.0021 42.8071L3.72554 44.7941L7.28573 46.7887L10.2639 47.1861L53.5535 46.9612L55.6776 46.2788L57.5143 45.0266L59.782 42.7771L60.5908 39.9802L60.742 36.5984Z" fill="url(#paint0_linear_1_777)"></path><path d="M37.5138 54.0769H24.044C23.7341 54.0769 23.4771 53.897 23.4771 53.672V47.3658C23.4771 47.1409 23.7341 46.9609 24.044 46.9609H37.5138C37.8237 46.9609 38.0807 47.1409 38.0807 47.3658V53.672C38.0429 53.897 37.7859 54.0769 37.5138 54.0769ZM24.573 53.2446H36.9091V47.7333H24.573V53.2446Z" fill="white"></path><path d="M30.7107 43.9092C30.2442 43.9092 29.7882 43.772 29.4004 43.5149C29.0126 43.2579 28.7104 42.8925 28.5319 42.465C28.3534 42.0375 28.3066 41.5671 28.3976 41.1133C28.4886 40.6595 28.7132 40.2426 29.043 39.9155C29.3729 39.5883 29.7931 39.3654 30.2506 39.2752C30.7081 39.1849 31.1822 39.2312 31.6132 39.4083C32.0441 39.5854 32.4125 39.8852 32.6716 40.27C32.9307 40.6547 33.069 41.107 33.069 41.5697C33.069 42.1902 32.8206 42.7853 32.3783 43.224C31.936 43.6627 31.3361 43.9092 30.7107 43.9092ZM30.7107 39.9801C30.3937 39.9801 30.0839 40.0733 29.8203 40.248C29.5568 40.4227 29.3514 40.6709 29.2302 40.9614C29.1089 41.2519 29.0772 41.5715 29.139 41.8798C29.2008 42.1882 29.3535 42.4715 29.5776 42.6938C29.8017 42.9161 30.0872 43.0675 30.398 43.1289C30.7089 43.1902 31.0311 43.1587 31.3239 43.0384C31.6167 42.9181 31.867 42.7143 32.0431 42.4529C32.2191 42.1915 32.3131 41.8841 32.3131 41.5697C32.3131 41.1481 32.1443 40.7438 31.8437 40.4457C31.5432 40.1475 31.1357 39.9801 30.7107 39.9801Z" fill="white"></path><path d="M45.4959 58.8759H27.5209C27.3706 58.8759 27.2263 58.8166 27.12 58.7112C27.0137 58.6057 26.954 58.4627 26.954 58.3135C26.954 58.1644 27.0137 58.0213 27.12 57.9158C27.2263 57.8104 27.3706 57.7511 27.5209 57.7511H44.9063C44.7675 56.7347 44.2622 55.8025 43.484 55.127C42.7059 54.4516 41.7074 54.0785 40.6734 54.0769H20.8388C19.8048 54.0785 18.8064 54.4516 18.0282 55.127C17.25 55.8025 16.7447 56.7347 16.6059 57.7511H21.557C21.7073 57.7511 21.8515 57.8104 21.9578 57.9158C22.0641 58.0213 22.1239 58.1644 22.1239 58.3135C22.1239 58.4627 22.0641 58.6057 21.9578 58.7112C21.8515 58.8166 21.7073 58.8759 21.557 58.8759H16.0012C15.8515 58.8739 15.7084 58.8141 15.6025 58.709C15.4966 58.604 15.4363 58.4621 15.4343 58.3135C15.4363 56.8922 16.0063 55.5297 17.0195 54.5246C18.0326 53.5196 19.4061 52.9541 20.8388 52.9521H40.6734C42.1061 52.9541 43.4796 53.5196 44.4928 54.5246C45.5059 55.5297 46.0759 56.8922 46.0779 58.3135C46.0779 58.3886 46.0628 58.463 46.0334 58.5322C46.004 58.6015 45.9608 58.6642 45.9065 58.7166C45.8523 58.769 45.788 58.8101 45.7175 58.8374C45.6469 58.8648 45.5716 58.8779 45.4959 58.8759Z" fill="white"></path><path d="M51.4749 47.8009H10.007C7.41885 47.7989 4.9371 46.7786 3.10627 44.9638C1.27543 43.149 0.244969 40.688 0.240967 38.1205V10.5639C0.244965 7.99575 1.27518 5.53387 3.1058 3.71789C4.93643 1.90192 7.41816 0.879943 10.007 0.875977H51.4749C54.0638 0.879943 56.5456 1.90192 58.3762 3.71789C60.2068 5.53387 61.237 7.99575 61.241 10.5639V38.1205C61.237 40.688 60.2066 43.149 58.3757 44.9638C56.5449 46.7786 54.0631 47.7989 51.4749 47.8009ZM10.007 2.00073C7.71887 2.0047 5.52554 2.90818 3.90755 4.51322C2.28956 6.11827 1.37879 8.29405 1.3748 10.5639V38.1205C1.3788 40.3897 2.28981 42.5646 3.90801 44.1685C5.52622 45.7723 7.71956 46.6741 10.007 46.6761H51.4749C53.7624 46.6741 55.9558 45.7723 57.574 44.1685C59.1922 42.5646 60.1032 40.3897 60.1072 38.1205V10.5639C60.1032 8.29405 59.1924 6.11827 57.5744 4.51322C55.9565 2.90818 53.7631 2.0047 51.4749 2.00073H10.007Z" fill="white"></path><path d="M7.90566 37.1682H0.807881C0.657526 37.1682 0.513372 37.109 0.407055 37.0035C0.300738 36.898 0.240967 36.755 0.240967 36.6058C0.240967 36.4567 0.300738 36.3136 0.407055 36.2082C0.513372 36.1027 0.657526 36.0435 0.807881 36.0435H7.90566C8.05602 36.0435 8.20026 36.1027 8.30658 36.2082C8.4129 36.3136 8.47258 36.4567 8.47258 36.6058C8.47258 36.755 8.4129 36.898 8.30658 37.0035C8.20026 37.109 8.05602 37.1682 7.90566 37.1682Z" fill="white"></path><path d="M21.4512 37.1682H13.8924C13.742 37.1682 13.5978 37.109 13.4915 37.0035C13.3852 36.898 13.3254 36.755 13.3254 36.6058C13.3254 36.4567 13.3852 36.3136 13.4915 36.2082C13.5978 36.1027 13.742 36.0435 13.8924 36.0435H21.4512C21.6016 36.0435 21.7457 36.1027 21.852 36.2082C21.9584 36.3136 22.0181 36.4567 22.0181 36.6058C22.0181 36.755 21.9584 36.898 21.852 37.0035C21.7457 37.109 21.6016 37.1682 21.4512 37.1682Z" fill="white"></path><path d="M60.674 37.1682H27.4151C27.2647 37.1682 27.1205 37.109 27.0141 37.0035C26.9078 36.898 26.8481 36.755 26.8481 36.6058C26.8481 36.4567 26.9078 36.3136 27.0141 36.2082C27.1205 36.1027 27.2647 36.0435 27.4151 36.0435H60.674C60.8244 36.0435 60.9686 36.1027 61.0749 36.2082C61.1812 36.3136 61.241 36.4567 61.241 36.6058C61.241 36.755 61.1812 36.898 61.0749 37.0035C60.9686 37.109 60.8244 37.1682 60.674 37.1682Z" fill="white"></path><path d="M47.3403 15.4454C47.3013 15.4464 47.2624 15.4395 47.2262 15.4252C47.19 15.4108 47.1571 15.3893 47.1295 15.362C47.1019 15.3346 47.0802 15.3019 47.0658 15.266C47.0513 15.23 47.0444 15.1916 47.0455 15.1529C47.0455 15.0753 47.0765 15.001 47.1318 14.9461C47.1871 14.8913 47.2621 14.8605 47.3403 14.8605C48.0742 14.859 48.7866 14.6152 49.3653 14.1675C49.944 13.7198 50.356 13.0936 50.5361 12.3878C50.7162 11.6821 50.6543 10.9369 50.36 10.2699C50.0658 9.60299 49.556 9.05223 48.9112 8.70459C48.2664 8.35695 47.5232 8.23225 46.799 8.35013C46.0748 8.46801 45.4108 8.82175 44.9118 9.35557C44.4128 9.88939 44.1072 10.5729 44.0432 11.2981C43.9793 12.0234 44.1605 12.7491 44.5586 13.3608C44.5989 13.4269 44.6121 13.5058 44.5952 13.5813C44.5783 13.6567 44.5326 13.7228 44.4679 13.7657C44.4351 13.7865 44.3986 13.8006 44.3604 13.8074C44.3221 13.8141 44.2829 13.8133 44.2449 13.8049C44.207 13.7965 44.1711 13.7808 44.1393 13.7587C44.1075 13.7365 44.0805 13.7083 44.0597 13.6757C43.593 12.9537 43.3819 12.0982 43.4596 11.2441C43.5373 10.3899 43.8994 9.58572 44.4889 8.95832C45.0783 8.33092 45.8616 7.91601 46.715 7.77905C47.5685 7.6421 48.4436 7.79089 49.2024 8.20193C49.9612 8.61298 50.5604 9.26291 50.9056 10.0492C51.2508 10.8355 51.3224 11.7134 51.109 12.5445C50.8956 13.3756 50.4092 14.1126 49.7269 14.6392C49.0445 15.1658 48.2048 15.452 47.3403 15.4528V15.4454Z" fill="white"></path><path d="M46.7884 19.832C46.7299 19.833 46.6726 19.8163 46.6239 19.7841C46.5753 19.752 46.5378 19.7059 46.5163 19.652L45.7604 17.9274H45.6848C45.2878 17.8318 44.9026 17.6935 44.5358 17.5149L42.8804 18.3998C42.8306 18.4347 42.7712 18.4533 42.7103 18.4533C42.6494 18.4533 42.59 18.4347 42.5403 18.3998L41.0285 17.0801C40.9845 17.0402 40.9538 16.988 40.9403 16.9305C40.9268 16.8729 40.9312 16.8127 40.9529 16.7576L41.6634 15.018C41.4307 14.6596 41.2429 14.2743 41.1041 13.8707L39.3051 13.3534C39.2463 13.3351 39.1945 13.2995 39.1567 13.2512C39.1189 13.203 39.0968 13.1445 39.0934 13.0834V12.9635C39.0556 12.1087 39.0556 12.0562 38.9951 11.1264C38.9926 11.0652 39.0086 11.0048 39.0409 10.9527C39.0732 10.9006 39.1204 10.8592 39.1765 10.8339L40.8924 10.0841C40.989 9.65218 41.1336 9.23223 41.3233 8.83185L40.4465 7.21968C40.4113 7.17033 40.3925 7.11141 40.3925 7.05099C40.3925 6.99056 40.4113 6.9316 40.4465 6.88225C41.1192 6.13241 41.1192 6.13241 41.7693 5.38257C41.8091 5.33614 41.8626 5.30322 41.9223 5.28843C41.9819 5.27364 42.0446 5.27773 42.1018 5.3001L43.7951 5.99744C44.1844 5.7493 44.6033 5.55032 45.0422 5.40509L45.5487 3.67296C45.5666 3.61576 45.6014 3.56516 45.6485 3.52774C45.6957 3.49032 45.753 3.46777 45.8132 3.46298L47.8088 3.34303C47.8706 3.33948 47.932 3.35483 47.9847 3.38701C48.0375 3.4192 48.0789 3.46666 48.1036 3.52298L48.7839 5.17264C49.2486 5.27692 49.6999 5.43287 50.1293 5.63753L51.7092 4.78271C51.7632 4.75289 51.8254 4.74119 51.8867 4.7493C51.948 4.7574 52.005 4.78488 52.0493 4.8277L52.9337 5.61502L53.5233 6.13991C53.5673 6.17979 53.598 6.23197 53.6115 6.28952C53.625 6.34708 53.6206 6.40731 53.5989 6.46234L52.9262 8.11199C53.1754 8.51406 53.3806 8.9414 53.5384 9.38673L55.2542 9.90412C55.3136 9.91887 55.3665 9.9525 55.4047 9.99991C55.443 10.0473 55.4644 10.1059 55.4659 10.1665C55.5264 11.1413 55.5264 11.1413 55.5642 12.1311C55.5697 12.1918 55.5549 12.2526 55.5221 12.3041C55.4893 12.3556 55.4404 12.3949 55.3828 12.4161L53.7273 13.0984C53.624 13.5561 53.4641 13.9994 53.2511 14.4181L54.1204 15.9928C54.1518 16.0436 54.1685 16.1019 54.1685 16.1615C54.1685 16.2211 54.1518 16.2795 54.1204 16.3302C53.4628 17.0801 53.4628 17.0801 52.79 17.8299C52.7487 17.8742 52.6948 17.905 52.6355 17.9183C52.5762 17.9317 52.5141 17.927 52.4575 17.9049L50.7643 17.2225C50.3797 17.4569 49.9688 17.6456 49.5398 17.7849L49.0106 19.547C48.9958 19.6059 48.9619 19.6583 48.9141 19.6963C48.8663 19.7342 48.8073 19.7555 48.7461 19.757L46.7657 19.877L46.7884 19.832ZM44.5207 16.8851C44.553 16.8772 44.5867 16.8772 44.619 16.8851L44.7474 16.9226C45.0924 17.093 45.4548 17.2263 45.8284 17.32C45.8962 17.3317 45.9622 17.3518 46.0249 17.38H46.0929C46.1317 17.3921 46.1673 17.4125 46.1974 17.4397C46.2274 17.4669 46.2511 17.5003 46.2668 17.5375L46.9773 19.1946L48.542 19.1046L49.0485 17.395C49.0641 17.3437 49.0927 17.2973 49.1316 17.26C49.1696 17.2237 49.2165 17.1978 49.2677 17.185C49.7446 17.0383 50.1996 16.829 50.6207 16.5627C50.6619 16.5428 50.7071 16.5324 50.753 16.5324C50.7988 16.5324 50.844 16.5428 50.8852 16.5627L52.5331 17.2225C53.0168 16.6977 53.1 16.6076 53.5762 16.0678L52.7372 14.5681C52.7147 14.5253 52.7029 14.4777 52.7029 14.4294C52.7029 14.3811 52.7147 14.3335 52.7372 14.2907C52.9808 13.8332 53.1564 13.3433 53.2587 12.836C53.2666 12.788 53.2868 12.7429 53.3172 12.7048C53.3476 12.6668 53.3874 12.6371 53.4326 12.6185L55.0426 11.9587C55.0426 11.2088 55.0426 11.1188 54.9594 10.4065L53.2965 9.90412C53.2507 9.89147 53.2088 9.86768 53.1745 9.83496C53.1401 9.80224 53.1145 9.76161 53.1 9.71666C52.9336 9.22036 52.705 8.74675 52.4197 8.30696C52.3972 8.26547 52.3854 8.2191 52.3854 8.17199C52.3854 8.12488 52.3972 8.07851 52.4197 8.03703L53.0697 6.44737L52.6389 6.06495C52.4197 5.86999 52.2534 5.72752 51.883 5.40509L50.3713 6.2374C50.3281 6.25974 50.2801 6.2714 50.2314 6.2714C50.1827 6.2714 50.1348 6.25974 50.0916 6.2374C49.6157 5.99302 49.1064 5.81873 48.5798 5.72001C48.5315 5.71218 48.4859 5.69225 48.4476 5.66206C48.4092 5.63188 48.3793 5.59246 48.3606 5.54756L47.6954 3.9504L46.1156 4.04037L45.6243 5.72001C45.6126 5.76805 45.5883 5.81215 45.5538 5.84774C45.5192 5.88333 45.4757 5.90915 45.4277 5.92248C44.9377 6.07359 44.472 6.29325 44.0445 6.57483C44.0031 6.59852 43.9562 6.61099 43.9084 6.61099C43.8606 6.61099 43.8137 6.59852 43.7724 6.57483L42.1321 5.89996C41.6559 6.43984 41.5803 6.52982 41.0889 7.06971L41.9355 8.62938C41.9594 8.67179 41.9719 8.71954 41.9719 8.7681C41.9719 8.81666 41.9594 8.86441 41.9355 8.90682C41.7095 9.34637 41.5491 9.81617 41.4593 10.3015C41.4464 10.3583 41.4176 10.4103 41.3761 10.4514C41.3346 10.4926 41.2823 10.5212 41.225 10.534L39.615 11.2088L39.6981 12.761L41.4292 13.2634C41.468 13.275 41.504 13.2943 41.5352 13.3201C41.5663 13.3458 41.592 13.3776 41.6106 13.4134L41.6559 13.5033C41.6559 13.5033 41.6559 13.5033 41.6559 13.5408C41.7816 13.9278 41.9596 14.2961 42.185 14.6356C42.1875 14.658 42.1875 14.6806 42.185 14.7031C42.1829 14.7405 42.1829 14.7781 42.185 14.8155C42.2017 14.8534 42.2102 14.8942 42.2102 14.9355C42.2102 14.9768 42.2017 15.0177 42.185 15.0555L41.5047 16.7127L42.6687 17.7474L44.2562 16.9001C44.296 16.8773 44.3407 16.8641 44.3866 16.8614C44.4326 16.8588 44.4785 16.867 44.5207 16.8851Z" fill="white"></path><path d="M47.3401 16.5775C46.0477 16.5919 44.7991 16.1127 43.8531 15.239C42.9071 14.3653 42.3361 13.1641 42.2584 11.8842C42.1807 10.6043 42.6021 9.34383 43.4356 8.36379C44.269 7.38375 45.4505 6.75925 46.7354 6.61967C46.8132 6.61329 46.8906 6.63702 46.9512 6.68594C47.0118 6.73487 47.051 6.80517 47.0605 6.8821C47.0657 6.92013 47.0632 6.95884 47.053 6.99588C47.0428 7.03291 47.0252 7.06755 47.0012 7.09766C46.9772 7.12777 46.9473 7.15275 46.9133 7.17111C46.8793 7.18948 46.842 7.20084 46.8035 7.20452C46.0895 7.29098 45.4074 7.54805 44.8156 7.95363C44.2238 8.35921 43.7401 8.90117 43.406 9.53303C43.0719 10.1649 42.8973 10.8678 42.8974 11.5813C42.8974 12.2948 43.072 12.9977 43.4061 13.6295C43.7403 14.2613 44.2241 14.8033 44.8159 15.2088C45.4077 15.6143 46.0899 15.8713 46.8039 15.9577C47.5178 16.0441 48.2422 15.9573 48.9149 15.7048C49.5876 15.4523 50.1886 15.0416 50.666 14.508C50.6912 14.4771 50.7223 14.4517 50.7577 14.4332C50.793 14.4146 50.8319 14.4034 50.8717 14.4003C50.9116 14.3971 50.9517 14.402 50.9896 14.4147C51.0274 14.4274 51.0624 14.4476 51.0922 14.474C51.1219 14.5005 51.1459 14.5327 51.1627 14.5687C51.1796 14.6047 51.1888 14.6437 51.19 14.6833C51.1911 14.723 51.1842 14.7625 51.1695 14.7993C51.1548 14.8362 51.1326 14.8697 51.1044 14.8979C50.6319 15.4254 50.0523 15.8479 49.4035 16.1374C48.7547 16.4269 48.0515 16.5768 47.3401 16.5775Z" fill="white"></path><path d="M52.0796 11.8761C52.002 11.8742 51.9281 11.8428 51.8733 11.7883C51.8184 11.7339 51.7867 11.6606 51.7848 11.5836C51.7857 10.9193 51.6352 10.2633 51.3446 9.6647C51.0541 9.06612 50.6309 8.54044 50.1067 8.1269C50.0459 8.07826 50.0064 8.00814 49.9966 7.93125C49.9867 7.85437 50.0072 7.77671 50.0538 7.7145C50.1039 7.65531 50.1751 7.61758 50.2525 7.60919C50.33 7.60081 50.4078 7.62238 50.4695 7.66947C51.0647 8.13659 51.5453 8.73155 51.8752 9.40951C52.2051 10.0875 52.3759 10.8308 52.3744 11.5836C52.3744 11.6612 52.3433 11.7356 52.288 11.7904C52.2327 11.8453 52.1578 11.8761 52.0796 11.8761Z" fill="white"></path></g><defs><linearGradient id="paint0_linear_1_777" x1="9.69602" y1="38.8928" x2="40.9963" y2="43.8611" gradientUnits="userSpaceOnUse"><stop stop-color="#DD42FA"></stop><stop offset="1" stop-color="#EEBB6B"></stop></linearGradient><clipPath id="clip0_1_777"><rect width="61" height="58" fill="white" transform="translate(0.240967 0.875977)"></rect></clipPath></defs></svg>