<svg width="155" height="48" viewBox="0 0 155 48" fill="none" xmlns="http://www.w3.org/2000/svg">
  <path d="M37.1194 18.7087C33.6755 18.7087 30.2316 17.469 27.8116 14.9896L22.4765 9.50932C20.5814 7.56664 16.3741 7.54396 14.4307 9.46396L6.27339 17.5295C5.57237 18.2203 4.63012 18.601 3.6532 18.5883C2.67628 18.5755 1.74429 18.1703 1.061 17.4614C0.380974 16.7493 0.00661355 15.7927 0.0198718 14.8009C0.03313 13.8092 0.432905 12.8632 1.13172 12.1701L9.28899 4.1046C14.17 -0.725641 22.9678 -0.657611 27.7483 4.24444L33.0874 9.72475C34.975 11.6674 39.1858 11.6901 41.1292 9.7701L47.0379 3.93073C51.9189 -0.895728 60.7166 -0.827695 65.4934 4.07435L70.84 9.55845C72.7313 11.4973 76.9421 11.5238 78.8856 9.6038L84.7904 3.76443C89.6789 -1.06581 98.473 -0.993995 103.25 3.90805L108.592 9.38837C110.484 11.331 114.691 11.3537 116.635 9.43372L122.55 3.59057C127.431 -1.23588 136.229 -1.16407 141.006 3.73798L146.345 9.2183C147.235 10.1329 148.728 10.681 150.34 10.6961C150.826 10.699 151.306 10.7992 151.753 10.9909C152.201 11.1825 152.607 11.4619 152.948 11.8129C153.289 12.164 153.558 12.5799 153.741 13.0368C153.923 13.4937 154.015 13.9826 154.011 14.4756C154.008 14.9686 153.91 15.4562 153.721 15.9105C153.533 16.3647 153.258 16.7767 152.912 17.1226C152.566 17.4686 152.156 17.7417 151.706 17.9263C151.255 18.111 150.773 18.2034 150.288 18.1984C146.71 18.172 143.355 16.8227 141.092 14.4945L135.749 9.0142C133.858 7.07152 129.647 7.04885 127.707 8.96885L121.791 14.812C116.91 19.6385 108.112 19.5704 103.335 14.6684L97.9816 9.15404C96.0902 7.21136 91.8793 7.18869 89.9396 9.10869L84.0309 14.9518C79.1461 19.7783 70.3522 19.7065 65.5754 14.8082L60.229 9.32034C58.3339 7.37766 54.123 7.35499 52.1832 9.27499L46.2747 15.1181C43.8621 17.5181 40.4888 18.7087 37.1194 18.7087Z" fill="url(#gradient1)"/>
  <path d="M37.1194 47.9999C33.6755 47.9999 30.2316 46.7565 27.8116 44.2771L22.4765 38.7968C20.5814 36.8541 16.3741 36.8314 14.4307 38.7514L6.27339 46.8207C5.57189 47.5111 4.6294 47.8911 3.65247 47.8776C2.67555 47.8642 1.7438 47.4583 1.061 46.7489C0.380974 46.0368 0.00661355 45.0801 0.0198718 44.0884C0.03313 43.0967 0.432905 42.1507 1.13172 41.4576L9.28899 33.3921C14.17 28.5618 22.9678 28.6299 27.7483 33.5357L33.0874 39.016C34.975 40.9549 39.1858 40.9814 41.1292 39.0614L47.0379 33.2182C51.9189 28.3918 60.7166 28.4598 65.4934 33.3618L70.84 38.8497C72.7313 40.7886 76.9421 40.8113 78.8856 38.8951L84.7904 33.0519C89.6789 28.2255 98.4767 28.2973 103.25 33.1955L108.593 38.6796C110.484 40.6185 114.691 40.6412 116.635 38.725L122.55 32.8818C127.431 28.0516 136.229 28.1234 141.006 33.0255L146.345 38.5058C147.235 39.4204 148.728 39.9722 150.34 39.9836C150.825 39.987 151.306 40.0875 151.753 40.2793C152.2 40.4712 152.606 40.7505 152.947 41.1015C153.287 41.4525 153.557 41.8681 153.74 42.3248C153.922 42.7815 154.014 43.2702 154.011 43.7631C154.004 44.7539 153.612 45.7017 152.919 46.3998C152.226 47.0979 151.29 47.4897 150.314 47.4897H150.288C146.71 47.4632 143.359 46.114 141.092 43.7858L135.749 38.3055C133.858 36.3628 129.647 36.3401 127.707 38.2563L121.791 44.1032C116.91 48.9297 108.112 48.8617 103.335 43.9558L97.9965 38.4755C96.1014 36.5329 91.8906 36.5102 89.9508 38.4302L84.0422 44.2695C79.1574 49.096 70.3595 49.028 65.5865 44.1259L60.229 38.6343C58.334 36.6916 54.123 36.6689 52.1832 38.5889L46.2747 44.4283C43.8621 46.8094 40.4889 47.9999 37.1194 47.9999Z" fill="url(#gradient1)"/>
  
  <defs>
    <linearGradient id="gradient1" x1="0" y1="0" x2="154" y2="0" gradientUnits="userSpaceOnUse">
      <stop stop-color="#dd42fa"/>
      <stop offset="1" stop-color="#ff8039"/>
    </linearGradient>
  </defs>
</svg>
