<svg width="155" height="19" viewBox="0 0 155 19" fill="none" xmlns="http://www.w3.org/2000/svg"> <path d="M37.9261 18.9268C34.4822 18.9268 31.0383 17.6871 28.6182 15.2077L23.2831 9.72739C21.388 7.78472 17.1808 7.76204 15.2373 9.68204L7.08003 17.7476C6.37901 18.4384 5.43676 18.8191 4.45984 18.8063C3.48292 18.7936 2.55094 18.3884 1.86764 17.6795C1.18761 16.9674 0.813254 16.0107 0.826512 15.019C0.839771 14.0273 1.23955 13.0813 1.93836 12.3882L10.0956 4.32267C14.9767 -0.507562 23.7745 -0.439533 28.555 4.46251L33.8941 9.94283C35.7817 11.8855 39.9924 11.9082 41.9359 9.98818L47.8445 4.14881C52.7256 -0.677649 61.5233 -0.609616 66.3 4.29243L71.6466 9.77653C73.5379 11.7154 77.7488 11.7419 79.6922 9.82188L85.5971 3.98251C90.4855 -0.847729 99.2796 -0.775916 104.056 4.12613L109.399 9.60645C111.29 11.5491 115.498 11.5718 117.441 9.6518L123.357 3.80865C128.238 -1.0178 137.036 -0.945988 141.813 3.95606L147.152 9.43637C148.042 10.351 149.534 10.899 151.147 10.9142C151.632 10.9171 152.113 11.0173 152.56 11.2089C153.008 11.4006 153.413 11.6799 153.754 12.031C154.095 12.3821 154.365 12.7979 154.547 13.2548C154.73 13.7117 154.821 14.2007 154.818 14.6937C154.815 15.1867 154.717 15.6743 154.528 16.1286C154.339 16.5828 154.064 16.9948 153.718 17.3407C153.372 17.6867 152.963 17.9598 152.512 18.1444C152.062 18.329 151.58 18.4215 151.094 18.4165C147.516 18.3901 144.162 17.0408 141.898 14.7126L136.556 9.23228C134.664 7.2896 130.453 7.26692 128.514 9.18692L122.598 15.0301C117.717 19.8565 108.919 19.7885 104.142 14.8864L98.7882 9.37212C96.8969 7.42944 92.686 7.40676 90.7462 9.32677L84.8375 15.1699C79.9528 19.9964 71.1588 19.9246 66.382 15.0263L61.0357 9.53842C59.1406 7.59574 54.9296 7.57307 52.9898 9.49306L47.0814 15.3362C44.6688 17.7362 41.2955 18.9268 37.9261 18.9268Z" fill="url(#paint0_linear_1_41)"></path> <defs> <linearGradient id="paint0_linear_1_41" x1="0.806559" y1="9.57244" x2="154.806" y2="9.57244" gradientUnits="userSpaceOnUse"> <stop stop-color="var( --e-global-color-primary )"></stop> <stop offset="1" stop-color="var( --e-global-color-secondary ) "></stop> </linearGradient> </defs> </svg>