<svg viewBox="0 0 298 375" fill="none" xmlns="http://www.w3.org/2000/svg"> <path d="M-19.0152 373.205C-18.6551 372.312 -18.3049 371.419 -17.9353 370.536L-12.0697 356.277C-10.1083 351.534 -7.95766 346.886 -5.92047 342.181C-4.85923 339.858 -3.91163 337.457 -2.76512 335.182L0.579464 328.288L3.87685 321.365L7.46803 314.644L11.0592 307.923C12.2626 305.676 13.6175 303.534 14.8493 301.335C25.1111 283.812 37.1829 267.441 51.8507 253.576C66.5185 239.711 84.1521 229.197 103.093 221.314C103.276 221.243 103.426 221.104 103.513 220.927C103.601 220.749 103.62 220.545 103.567 220.354C103.511 220.153 103.382 219.982 103.206 219.875C103.03 219.768 102.82 219.733 102.619 219.778C82.7213 225.155 63.3819 234.334 46.8854 247.623C30.3889 260.912 16.8205 277.609 5.44065 295.353C-5.9392 313.098 -15.2534 332.1 -23.459 351.38C-26.5006 358.524 -29.3243 365.735 -31.9868 373.003C-27.6977 373.093 -23.3738 373.16 -19.0152 373.205Z" fill="url(#paint0_linear_1_671)" stroke="black"></path> <path d="M-71.48 371.006C-70.5325 368.903 -69.8789 367.223 -69.5188 366.34L-69.405 366.052C-62.867 349.873 -57.4093 333.281 -50.7102 317.226C-47.5265 309.132 -44.5134 300.961 -41.2349 292.934L-31.333 268.862C-28.0167 260.845 -24.3876 253.009 -20.9102 245.059C-19.1194 241.122 -17.5276 237.08 -15.5757 233.239L-9.93772 221.592L-4.36635 209.897L1.6885 198.51L7.76186 187.122C9.7801 183.281 12.0732 179.719 14.2146 176.003C31.5449 146.42 51.9453 118.757 76.7516 95.3479C101.672 72.1595 131.301 54.1753 163.29 40.8576C163.592 40.7314 163.839 40.4987 163.986 40.2022C164.132 39.9057 164.167 39.5653 164.085 39.2443C163.988 38.8963 163.76 38.601 163.45 38.4215C163.14 38.242 162.773 38.1925 162.427 38.2842C128.818 47.3675 96.1664 62.8744 68.309 85.333C40.4516 107.792 17.5404 135.963 -1.67551 165.931C-20.8914 195.898 -36.6204 227.977 -50.4734 260.547C-64.3263 293.116 -75.6113 326.636 -85.9678 360.339C-86.6782 363.396 -87.1911 366.498 -87.5029 369.623C-82.3105 370.129 -76.9694 370.59 -71.48 371.006Z" fill="url(#paint1_linear_1_671)" stroke="black"></path> <path d="M218.266 46.2057C214.722 46.1001 213.613 43.4502 217.185 42.8165C230.896 40.4064 244.863 41.4723 258.498 44.5353C260.02 44.8848 261.613 44.7239 263.037 44.0767C264.461 43.4296 265.639 42.331 266.393 40.9468C267.148 39.5625 267.438 37.9674 267.221 36.4014C267.003 34.8354 266.29 33.3834 265.188 32.2639L265.008 32.0815C263.925 31.0008 262.531 30.298 261.028 30.0749C243.356 27.3768 224.955 25.8406 207.331 27.809C203.588 28.2315 202.129 22.7871 205.986 21.8749C210.723 20.7611 215.461 19.8775 220.199 19.2053C227.779 18.1395 228.594 7.34714 221.317 5.08111C217.403 3.81483 213.375 2.94328 209.292 2.47906C163.025 -2.0818 149.105 35.3845 149.105 35.3845C149.105 35.3845 122.29 8.32658 90.3584 29.6234C79.3481 36.9496 71.0383 45.4952 65.1257 54.8281C75.3496 48.683 85.8199 43.5078 94.632 38.995C99.4644 36.5177 103.406 43.94 98.621 46.4748C74.8475 59.082 61.7526 69.4424 57.8772 72.6974C57.0731 73.3611 56.4959 74.2649 56.2283 75.2803C56.2283 75.2803 56.2283 75.3663 56.2283 75.4144C55.9762 76.3943 56.0204 77.4286 56.3546 78.383C56.6888 79.3375 57.2978 80.1682 58.103 80.768C58.9082 81.3678 59.8724 81.709 60.8711 81.7474C61.8697 81.7858 62.8567 81.5199 63.7044 80.9837C80.2578 70.5849 97.8155 61.7222 115.07 53.3302C120.215 50.8241 124.223 58.352 119.325 61.3286C98.28 74.099 76.2595 85.8423 56.4277 100.562C55.7148 101.09 55.1522 101.8 54.7977 102.619C54.4433 103.439 54.3092 104.339 54.4091 105.228C56.5221 122.78 63.8843 140.755 75.4347 157.471C75.9646 158.247 76.6975 158.859 77.551 159.237C78.4044 159.614 79.3449 159.743 80.2668 159.61C81.1887 159.476 82.0555 159.085 82.7702 158.48C83.485 157.875 84.0193 157.08 84.3132 156.185C89.7236 139.679 103.33 105.401 128.165 82.8365C131.955 79.3607 136.835 84.8433 133.576 88.5976C108.599 117.086 96.5648 164.452 94.0254 176.502C93.8505 177.338 93.8875 178.206 94.1328 179.023C94.378 179.841 94.8233 180.583 95.4277 181.179C103.897 189.433 113.141 196.829 123.029 203.263C123.693 203.705 124.452 203.981 125.242 204.066C126.032 204.152 126.832 204.046 127.573 203.756C128.314 203.465 128.976 203 129.505 202.398C130.033 201.797 130.411 201.075 130.609 200.296C132.069 194.534 133.765 188.85 135.48 183.224C144.377 154.063 150.858 123.769 169.041 98.7756C172.68 93.7731 180.355 98.3244 177.266 103.855C161.907 131.316 158.316 164.721 150.925 195.072C149.493 200.939 148.364 206.878 147.542 212.865C147.394 213.952 147.601 215.058 148.131 216.015C148.662 216.972 149.486 217.727 150.479 218.165C157.946 221.443 165.612 224.236 173.429 226.528C174.171 226.75 174.954 226.796 175.716 226.66C176.478 226.525 177.199 226.212 177.823 225.747C178.446 225.282 178.954 224.677 179.308 223.98C179.662 223.282 179.851 222.511 179.862 221.727C179.862 218.261 179.967 214.794 180.08 211.328C180.838 188.706 184.363 167.381 195.051 147.284C197.458 142.752 204.972 146.151 203.171 150.952C194.89 173.084 195.392 196.253 196.671 219.499C196.814 222.024 197.041 224.838 197.297 227.834C197.391 228.981 197.867 230.062 198.647 230.899C199.426 231.737 200.464 232.281 201.589 232.442C207.35 233.204 213.209 233.697 219.166 233.921C219.875 233.953 220.583 233.832 221.243 233.566C221.902 233.3 222.498 232.894 222.991 232.377C223.484 231.859 223.862 231.241 224.101 230.564C224.34 229.886 224.435 229.165 224.378 228.448C222.918 210.416 226.623 192.691 230.906 174.265C232.014 169.464 239.178 171.701 238.079 176.435C233.768 194.995 231.844 215.035 235.785 233.873C244.165 233.477 252.511 232.537 260.772 231.06C267.056 219.605 272.749 207.827 277.827 195.773C278.26 194.755 278.453 193.649 278.391 192.542C278.328 191.436 278.012 190.359 277.467 189.397C272.256 180.347 265.481 172.32 257.465 165.7C253.296 162.263 259.171 154.975 263.34 158.288C267.83 161.853 272.017 165.794 275.856 170.069C276.713 171.022 277.803 171.729 279.016 172.116C280.229 172.504 281.522 172.559 282.763 172.276C284.004 171.993 285.149 171.382 286.081 170.506C287.013 169.629 287.699 168.518 288.07 167.285C288.702 165.179 289.296 163.102 289.852 161.053C290.542 157.84 290.089 154.483 288.573 151.576C275.563 129.55 254.585 114.552 233.616 103.068C228.291 100.187 232.175 92.0642 237.775 94.4262C254.016 101.147 270.512 112.91 284.128 127.197C285.096 128.206 286.331 128.909 287.684 129.222C289.038 129.535 290.451 129.444 291.754 128.959C293.058 128.474 294.195 127.617 295.027 126.492C295.86 125.366 296.353 124.02 296.446 122.617C296.655 119.244 296.753 115.954 296.74 112.747C296.628 110.516 295.848 108.372 294.504 106.601C275.648 84.4496 242.721 65.784 217.261 62.0393C213.935 61.5496 213.916 56.528 217.441 56.6144C246.426 57.3441 273.668 74.2526 295.186 92.7937C294.496 88.261 293.547 83.7726 292.344 79.3512C290.629 73.0716 288.554 68.9814 282.366 62.7402C268.902 49.2593 238.751 46.801 218.266 46.2057Z" fill="url(#paint2_linear_1_671)" stroke="black"></path> <path d="M225.163 127.543C225.163 127.543 210.145 119.506 199.722 98.9771C195.544 90.758 193.819 81.4062 190.939 72.6781C187.556 62.4042 182.904 52.2263 173.883 45.7931C166.578 40.5793 157.671 37.2855 149.058 35.3652" stroke="black"></path> <path d="M148.224 281.969C144.254 278.128 150.223 271.598 154.193 275.631C155.577 277.033 156.989 278.445 158.391 279.885C159.186 280.706 160.182 281.3 161.277 281.606C162.372 281.911 163.527 281.919 164.626 281.626C165.724 281.334 166.727 280.752 167.533 279.94C168.338 279.129 168.917 278.116 169.212 277.004C169.957 274.156 170.623 271.346 171.211 268.574C171.48 267.324 171.383 266.021 170.93 264.826C170.477 263.632 169.688 262.598 168.662 261.853C161.425 256.843 153.321 253.26 144.775 251.291C141.25 250.456 142.548 245.05 146.063 245.76C152.608 247.064 158.958 249.22 164.957 252.174C165.901 252.662 166.949 252.906 168.008 252.886C169.067 252.866 170.106 252.582 171.031 252.059C171.956 251.537 172.74 250.791 173.313 249.888C173.887 248.986 174.232 247.953 174.319 246.883C174.433 245.174 174.518 243.484 174.575 241.823C174.604 240.88 174.428 239.941 174.057 239.074C173.687 238.208 173.133 237.435 172.433 236.811C166.394 231.513 159.17 227.788 151.388 225.961C146.338 224.847 148.205 217.108 153.236 218.078C156.603 218.836 159.88 219.953 163.015 221.41C164.12 221.904 165.34 222.073 166.536 221.9C167.731 221.727 168.855 221.217 169.78 220.429C170.704 219.641 171.392 218.607 171.765 217.443C172.139 216.279 172.183 215.032 171.893 213.844C170.89 209.761 169.53 205.776 167.828 201.937C167.147 200.461 165.933 199.306 164.436 198.711C154.013 194.419 141.221 190.175 132.011 195.831C127.823 198.404 124.356 192.287 128.108 189.397C128.828 188.875 129.574 188.392 130.344 187.948C136.228 184.366 133.13 175.062 126.317 175.907C123.117 176.311 119.968 177.048 116.917 178.106C92.2816 186.536 98.4216 215.86 98.4216 215.86C90.9835 203.627 77.5759 198.241 67.8258 197.329C42.2424 194.947 32.5019 209.254 28.7591 220.949C28.3765 222.189 28.3485 223.513 28.6781 224.769C29.0077 226.024 29.6813 227.159 30.6213 228.042C31.5613 228.925 32.7293 229.521 33.9895 229.759C35.2497 229.998 36.5505 229.869 37.7417 229.389C47.664 225.523 58.1819 223.462 68.8113 223.301C71.417 223.301 71.5211 227.142 68.9533 227.382C55.4251 228.452 42.3211 232.661 30.6542 239.682C29.9088 240.143 29.1698 240.623 28.4371 241.122C27.4457 241.788 26.6487 242.711 26.1303 243.796C25.6118 244.88 25.3907 246.086 25.4899 247.287C26.3143 256.754 30.5309 265.367 36.9362 273.164C37.6153 273.988 38.4748 274.64 39.4461 275.068C40.4174 275.497 41.4738 275.689 42.5316 275.632C43.5894 275.574 44.6196 275.267 45.5398 274.735C46.4601 274.204 47.245 273.461 47.8328 272.568C52.8168 265.05 62.1974 253.931 76.5335 248.756C81.7829 246.836 85.848 253.489 81.044 256.168C67.3427 263.85 59.4022 276.025 55.9437 283.159C55.2172 284.657 55.0531 286.371 55.482 287.982C55.9109 289.594 56.9034 290.992 58.2746 291.916C67.4543 297.986 77.1068 303.288 87.1364 307.769C88.0618 308.184 89.0671 308.384 90.0789 308.355C91.0906 308.325 92.0831 308.067 92.9835 307.598C93.8838 307.129 94.6694 306.463 95.2824 305.647C95.8955 304.831 96.3206 303.886 96.5265 302.881C98.7982 291.512 102.858 280.587 108.551 270.523C110.228 267.643 114.558 270.014 113.137 273.048C107.871 284.345 104.441 296.429 102.979 308.834C102.811 310.365 103.154 311.909 103.955 313.218C104.755 314.528 105.967 315.527 107.394 316.055C109.072 316.669 110.73 317.274 112.35 317.851C114.006 318.439 115.822 318.358 117.421 317.625C119.02 316.892 120.278 315.563 120.935 313.914C122.176 310.793 123.304 308.152 123.872 306.559C125.208 302.804 131.121 304.043 129.965 308.018C129.226 310.543 128.411 313.04 127.615 315.536C127.332 316.419 127.228 317.349 127.309 318.273C127.39 319.197 127.654 320.096 128.086 320.913C128.517 321.731 129.108 322.452 129.822 323.033C130.536 323.614 131.358 324.043 132.239 324.293C136.863 325.657 140.767 326.694 143.609 327.433C145.112 327.811 146.698 327.66 148.104 327.004C149.511 326.348 150.656 325.225 151.351 323.823C154.866 316.785 157.926 309.919 160.589 303.256C160.944 302.36 161.096 301.394 161.035 300.431C160.975 299.467 160.702 298.53 160.238 297.687C157.02 291.876 152.972 286.579 148.224 281.969Z" fill="url(#paint3_linear_1_671)" stroke="black"></path> <path d="M98.3838 215.793C98.3838 215.793 128.221 234.833 137.971 288.661" stroke="black"></path> <defs> <linearGradient id="paint0_linear_1_671" x1="-31.9773" y1="296.458" x2="103.643" y2="296.458" gradientUnits="userSpaceOnUse"> <stop stop-color="
var( --e-global-color-primary ) "></stop> <stop offset="1" stop-color="var( --e-global-color-330668c9 )  "></stop> </linearGradient> <linearGradient id="paint1_linear_1_671" x1="-87.5787" y1="204.616" x2="164.048" y2="204.616" gradientUnits="userSpaceOnUse"> <stop stop-color="
var( --e-global-color-primary ) "></stop> <stop offset="1" stop-color="var( --e-global-color-330668c9 )  "></stop> </linearGradient> <linearGradient id="paint2_linear_1_671" x1="111.095" y1="-124.004" x2="233.115" y2="290.584" gradientUnits="userSpaceOnUse"> <stop stop-color="
var( --e-global-color-primary ) "></stop> <stop offset="1" stop-color="var( --e-global-color-330668c9 ) "></stop> </linearGradient> <linearGradient id="paint3_linear_1_671" x1="46.3035" y1="192.982" x2="174.22" y2="293.391" gradientUnits="userSpaceOnUse"> <stop stop-color="
var( --e-global-color-primary ) "></stop> <stop offset="1" stop-color="var( --e-global-color-330668c9 )  "></stop> </linearGradient> </defs> </svg>